<?xml version="1.0" encoding="iso-8859-1"?>
<!-- Uploaded to: SVG Repo, www.svgrepo.com, Generator: SVG Repo Mixer Tools -->
<svg height="800px" width="800px" version="1.1" id="Layer_1" xmlns="http://www.w3.org/2000/svg" xmlns:xlink="http://www.w3.org/1999/xlink" 
	 viewBox="0 0 503.467 503.467" xml:space="preserve">
<g transform="translate(1 1)">
	<g>
		<path style="fill:#AE938D;" d="M233.667,88.6v341.333c0,9.387-7.68,17.067-17.067,17.067H54.467c0,0-17.067,0-17.067-17.067
			V259.267c0-103.253,75.947-187.733,179.2-187.733C225.987,71.533,233.667,79.213,233.667,88.6L233.667,88.6z"/>
		<path style="fill:#AE938D;" d="M464.067,259.267v170.667C464.067,447,447,447,447,447H284.867c-9.387,0-17.067-7.68-17.067-17.067
			V88.6c0-9.387,7.68-17.067,17.067-17.067C388.12,71.533,464.067,156.013,464.067,259.267L464.067,259.267z"/>
	</g>
	<path style="fill:#FFD0A1;" d="M429.933,412.867v-51.2v-51.2v-51.2c0-17.067-3.413-34.987-9.387-51.2
		c-6.827-18.773-17.067-35.84-29.867-51.2c-22.187-25.6-52.907-42.667-89.6-42.667v42.667v51.2v51.2v51.2v51.2v51.2H429.933z
		 M199.533,412.867v-51.2v-51.2v-51.2v-51.2v-51.2V114.2c-36.693,0-67.413,17.067-89.6,42.667l0,0
		c-12.8,14.507-23.04,32.427-29.867,51.2c-5.973,17.067-9.387,34.133-9.387,51.2v51.2v51.2v51.2H199.533z"/>
	<g>
		<path style="fill:#AE938D;" d="M498.2,20.333V498.2h-34.133v-68.267V259.267V20.333c0-9.387,7.68-17.067,17.067-17.067
			S498.2,10.947,498.2,20.333"/>
		<path style="fill:#AE938D;" d="M37.4,429.933V498.2H3.267V20.333c0-9.387,7.68-17.067,17.067-17.067S37.4,10.947,37.4,20.333
			v238.933V429.933z"/>
	</g>
</g>
<path style="fill:#51565F;" d="M499.2,503.467h-34.133c-2.56,0-4.267-1.707-4.267-4.267V260.267
	c0-104.96-75.093-183.467-174.933-183.467c-6.827,0-12.8,5.973-12.8,12.8v341.333c0,6.827,5.973,12.8,12.8,12.8h145.067
	c2.56,0,4.267,1.707,4.267,4.267c0,2.56-1.707,4.267-4.267,4.267H285.867c-11.947,0-21.333-9.387-21.333-21.333V89.6
	c0-11.947,9.387-21.333,21.333-21.333c103.253,0,183.467,84.48,183.467,192v234.667h25.6v-473.6c0-6.827-5.973-12.8-12.8-12.8
	s-12.8,5.973-12.8,12.8v128c0,2.56-1.707,4.267-4.267,4.267s-4.267-1.707-4.267-4.267v-128C460.8,9.387,470.187,0,482.133,0
	s21.333,9.387,21.333,21.333V499.2C503.467,501.76,501.76,503.467,499.2,503.467z M38.4,503.467H4.267
	C1.707,503.467,0,501.76,0,499.2V21.333C0,9.387,9.387,0,21.333,0s21.333,9.387,21.333,21.333v128c0,2.56-1.707,4.267-4.267,4.267
	s-4.267-1.707-4.267-4.267v-128c0-6.827-5.973-12.8-12.8-12.8s-12.8,5.973-12.8,12.8v473.6h25.6V260.267
	c0-107.52,80.213-192,183.467-192c11.947,0,21.333,9.387,21.333,21.333v341.333c0,11.947-9.387,21.333-21.333,21.333H72.533
	c-2.56,0-4.267-1.707-4.267-4.267c0-2.56,1.707-4.267,4.267-4.267H217.6c6.827,0,12.8-5.973,12.8-12.8V89.6
	c0-6.827-5.973-12.8-12.8-12.8c-99.84,0-174.933,78.507-174.933,183.467V499.2C42.667,501.76,40.96,503.467,38.4,503.467z
	 M430.933,418.133h-128c-2.56,0-4.267-1.707-4.267-4.267V115.2c0-2.56,1.707-4.267,4.267-4.267
	c79.36,0,132.267,76.8,132.267,149.333v153.6C435.2,416.427,433.493,418.133,430.933,418.133z M307.2,409.6h119.467v-42.667H307.2
	V409.6z M307.2,358.4h119.467v-42.667H307.2V358.4z M307.2,307.2h119.467v-42.667H307.2V307.2z M307.2,256h119.467
	c-0.853-14.507-3.413-29.013-7.68-42.667H307.2V256z M307.2,204.8h108.373c-5.973-15.36-14.507-29.867-25.6-42.667H307.2V204.8z
	 M307.2,153.6h75.093c-19.627-19.627-45.227-33.28-75.093-34.133V153.6z M200.533,418.133h-128c-2.56,0-4.267-1.707-4.267-4.267
	v-153.6c0-72.533,52.907-149.333,132.267-149.333c2.56,0,4.267,1.707,4.267,4.267v298.667
	C204.8,416.427,203.093,418.133,200.533,418.133z M76.8,409.6h119.467v-42.667H76.8V409.6z M76.8,358.4h119.467v-42.667H76.8V358.4z
	 M76.8,307.2h119.467v-42.667H76.8V307.2z M76.8,256h119.467v-42.667H84.48C80.213,226.987,77.653,241.493,76.8,256z M87.893,204.8
	h108.373v-42.667h-82.773C103.253,174.933,93.867,189.44,87.893,204.8z M121.173,153.6h75.093v-34.133
	C167.253,120.32,141.653,133.973,121.173,153.6z"/>
</svg>