<?xml version="1.0" ?>
<!-- Uploaded to: SVG Repo, www.svgrepo.com, Generator: SVG Repo Mixer Tools -->
<svg width="800px" height="800px" viewBox="0 0 20 20" version="1.1" xmlns="http://www.w3.org/2000/svg">
<g id="layer1">
<path d="M 13 0 C 10.790861 0 9 1.790861 9 4 C 9.0024 5.0307583 9.4026147 6.0208021 10.117188 6.7636719 L 0.95703125 15.921875 C 0.62086475 16.244644 0.45845636 16.670999 0.47851562 17.064453 C 0.49857493 17.457908 0.67725702 17.806163 0.93554688 18.064453 C 1.1938367 18.322743 1.5420923 18.501425 1.9355469 18.521484 C 2.3290014 18.541544 2.7553556 18.379135 3.078125 18.042969 L 3.171875 17.949219 L 5.0742188 19.853516 C 5.2694836 20.0487 5.585985 20.0487 5.78125 19.853516 L 7.6015625 18.03125 C 7.7967466 17.835986 7.7967466 17.519484 7.6015625 17.324219 L 5.6992188 15.421875 L 12.240234 8.8789062 C 12.981513 9.5939733 13.970051 9.9955445 15 10 C 17.209139 10 19 8.209139 19 6 C 18.998286 4.9393115 18.575356 3.9227318 17.824219 3.1738281 L 15.822266 1.1777344 C 15.074639 0.42683647 14.059614 0.00326579 13 0 z M 13 1 C 13.795207 1.00116 14.557423 1.3179845 15.119141 1.8808594 L 17.117188 3.8789062 C 17.681256 4.4407828 17.998844 5.2038355 18 6 C 18 7.6568542 16.656854 9 15 9 C 14.238445 8.9994118 13.513016 8.7017648 12.958984 8.1835938 L 12.59375 7.8183594 C 12.398485 7.6231754 12.081983 7.6231754 11.886719 7.8183594 L 4.6386719 15.068359 C 4.4434879 15.263626 4.4434879 15.580127 4.6386719 15.775391 L 6.5410156 17.677734 L 5.4277344 18.792969 L 3.5253906 16.888672 C 3.3301257 16.693488 3.0136243 16.693488 2.8183594 16.888672 L 2.3632812 17.34375 C 2.3606513 17.34635 2.3580388 17.348963 2.3554688 17.351562 C 2.206981 17.506224 2.0997502 17.529214 1.9863281 17.523438 C 1.872906 17.517637 1.742694 17.457538 1.6425781 17.357422 C 1.5424623 17.257306 1.482345 17.127094 1.4765625 17.013672 C 1.4707825 16.90025 1.4937895 16.793016 1.6484375 16.644531 C 1.6510675 16.641931 1.65368 16.639319 1.65625 16.636719 L 11.177734 7.1171875 C 11.372918 6.9219235 11.372918 6.6054212 11.177734 6.4101562 L 10.853516 6.0859375 C 10.30969 5.5273298 10.001135 4.7807426 10 4 C 10 2.3431458 11.343146 1 13 1 z M 13 2 C 11.895431 2 11 2.8954305 11 4 C 11.00008 4.5304024 11.210844 5.0390516 11.585938 5.4140625 L 13.576172 7.4023438 C 13.951636 7.7841375 14.46452 7.9994223 15 8 C 16.104569 8 17 7.1045695 17 6 C 16.999923 5.4676819 16.787639 4.957357 16.410156 4.5820312 L 14.414062 2.5859375 C 14.039053 2.2108465 13.530402 2.0000803 13 2 z M 13 3 C 13.265201 3.0000401 13.519526 3.1054231 13.707031 3.2929688 L 15.701172 5.2871094 C 15.89231 5.4750787 15.999973 5.7319212 16 6 C 16 6.5522847 15.552285 7 15 7 C 14.729996 6.9999957 14.471468 6.890808 14.283203 6.6972656 L 12.292969 4.7070312 C 12.105423 4.5195257 12.00004 4.2652012 12 4 C 12 3.4477153 12.447715 3 13 3 z " style="fill:#222222; fill-opacity:1; stroke:none; stroke-width:0px;"/>
</g>
</svg>