<svg xmlns="http://www.w3.org/2000/svg" xmlns:xlink="http://www.w3.org/1999/xlink" viewBox="0 0 200 200" version="1.1" x="0px" y="0px">
    <title>tardis</title>
    <desc>Created with Sketch.</desc>
    <g stroke="none" stroke-width="1" fill="none" fill-rule="evenodd">
        <path d="M97.9531841,176 L17,176 L17,172 L19,170.948613 L19,53 L17.0244941,53 L17,44 L19,43 L19,38 L22,38 L22,34 L49,29 C50.6568542,29 52,27.6568542 52,26 L54,26 L54,20 L55,19 L60,19 L61,20 L61,26 L62.9547142,26 L62.9547194,26.0003417 C62.979837,27.6642809 64.3358712,29 66,29 C76.26321,30.8938521 84.2471364,32.3845844 89.9517791,33.472197 C90.7864727,33.6306933 91.5981309,33.9121609 92.5249659,34.1663015 C92.5249659,35.4301729 92.5249659,36.6161625 92.5249659,37.9346878 C93.4789014,38.0289658 94.31495,38.1109466 95.297341,38.206591 C95.297341,39.7450982 95.297341,41.2467141 95.297341,42.81938 C96.1970756,43.0175004 96.9735032,43.1882938 97.8312321,43.3768498 C97.8312321,46.6478856 97.8312321,49.8997926 97.8312321,53.1380361 C97.7241854,53.2186506 97.6455941,53.3279583 97.5548077,53.3388891 C95.3772873,53.6203567 95.3759322,53.617624 95.3759322,55.9267512 C95.3750289,80.8434636 95.5830515,119.184084 96,170.948613 L98,172 L97.9531841,176 Z M57,57 C57,94.3831117 57,131.67032 57,169 C57.7103632,169 58.3091231,169 59,169 C59,131.634699 59,94.3488605 59,57 C58.2878654,57 57.6944198,57 57,57 Z M55,21 L55,26 L60,26 L60,21 L55,21 Z M27,57 L27,67 L33,67 L33,57 L27,57 Z M66,57 L66,67 L72,67 L72,57 L66,57 Z M27,85 L27,108 L49,108 L49,85 L27,85 Z M66,85 L66,108 L88,108 L88,85 L66,85 Z M68,87 L86,87 L86,106 L68,106 L68,87 Z M27,114 L27,137 L49,137 L49,114 L27,114 Z M29,116 L47,116 L47,135 L29,135 L29,116 Z M66,114 L66,137 L88,137 L88,114 L66,114 Z M68,116 L86,116 L86,135 L68,135 L68,116 Z M27,143 L27,166 L49,166 L49,143 L27,143 Z M29,145 L47,145 L47,164 L29,164 L29,145 Z M66,143 L66,166 L88,166 L88,143 L66,143 Z M68,145 L86,145 L86,164 L68,164 L68,145 Z M35,57 L35,67 L41,67 L41,57 L35,57 Z M74,57 L74,67 L80,67 L80,57 L74,57 Z M43,57 L43,67 L49,67 L49,57 L43,57 Z M21,52 L94,52 L94,44 L21,44 L21,52 Z M23,46 L92,46 L92,50 L23,50 L23,46 Z M82,57 L82,67 L88,67 L88,57 L82,57 Z M27,69 L27,79 L33,79 L33,69 L27,69 Z M66,69 L66,79 L72,79 L72,69 L66,69 Z M35,69 L35,79 L41,79 L41,69 L35,69 Z M74,69 L74,79 L80,79 L80,69 L74,69 Z M43,69 L43,79 L49,79 L49,69 L43,69 Z M82,69 L82,79 L88,79 L88,69 L82,69 Z" fill="#000000" fill-rule="nonzero"/>
    </g>
</svg>